<svg width="532" height="661" viewBox="0 0 532 661" fill="none" xmlns="http://www.w3.org/2000/svg">
<path d="M131.654 0C207.562 85.0129 255.404 164.672 377.926 190.044C423.455 162.673 443.987 164.058 511.726 172.109C526.547 175.059 525.38 175.127 531.029 180.776C514.795 188.44 514.534 195.007 513.977 212.873C517.496 386.814 430.395 438.95 202.181 575.534C160.115 600.71 113.253 628.755 61.2811 660.962C62.5106 583.934 84.0286 539.033 102.144 501.238C106.983 491.143 111.583 481.552 115.484 471.994C84.399 450.106 61.7702 424.141 47.2904 385.363C75.2026 388.025 99.3591 398.697 122.557 392.705C37.0654 368.265 13.7188 310.491 0 225.782C23.7267 239.182 39.0789 259.067 69.937 260.505C2.1964 200.057 -1.06723 98.8128 37.9669 1.4399C63.8408 30.4166 86.7665 58.8233 110.072 85.0808C112.835 57.2602 120.25 28.4476 131.654 0Z" fill="white"/>
</svg>
