<svg width="94" height="117" viewBox="0 0 94 117" fill="none" xmlns="http://www.w3.org/2000/svg">
    <path d="M23.3047 0C36.7415 15.0485 45.2103 29.1493 66.8984 33.6406C74.9579 28.7955 78.5922 29.0407 90.583 30.4658C93.2065 30.9881 93 31 94 32C91.1264 33.3567 91.08 34.5191 90.9814 37.6816C91.6045 68.4717 76.1862 77.7006 35.7891 101.878C28.3427 106.335 20.0474 111.299 10.8477 117C11.0653 103.365 14.8743 95.4167 18.0811 88.7266C18.9376 86.9395 19.7518 85.2419 20.4424 83.5498C14.9399 79.6754 10.9342 75.0792 8.37109 68.2148C13.312 68.6862 17.588 70.5753 21.6943 69.5146C6.56113 65.1883 2.42843 54.9615 0 39.9668C4.19998 42.3388 6.91754 45.8587 12.3799 46.1133C0.388795 35.413 -0.188916 17.4913 6.7207 0.254883C11.3008 5.38419 15.3589 10.4126 19.4844 15.0605C19.9735 10.1359 21.2861 5.03564 23.3047 0Z" fill="url(#paint0_linear_236_15)"/>
    <defs>
        <linearGradient id="paint0_linear_236_15" x1="47" y1="0" x2="47" y2="117" gradientUnits="userSpaceOnUse">
            <stop stop-color="#2196F3"/>
            <stop offset="1" stop-color="#467DEE"/>
        </linearGradient>
    </defs>
</svg>

